<svg width="54" height="54" viewBox="0 0 54 54" fill="none" xmlns="http://www.w3.org/2000/svg">
<circle cx="27" cy="27" r="26.5" transform="rotate(90 27 27)" fill="#121927" stroke="#7A49B8"/>
<path d="M27 31C29.2091 31 31 29.2091 31 27C31 24.7909 29.2091 23 27 23C24.7909 23 23 24.7909 23 27C23 29.2091 24.7909 31 27 31Z" fill="white"/>
<path fill-rule="evenodd" clip-rule="evenodd" d="M27 38C33.0751 38 38 33.0751 38 27C38 20.9249 33.0751 16 27 16C20.9249 16 16 20.9249 16 27C16 33.0751 20.9249 38 27 38ZM37 27C37 31.9706 31.9706 37 27 37C22.0294 37 17 31.9706 17 27C17 22.0294 22.0294 17 27 17C31.9706 17 37 22.0294 37 27Z" fill="white"/>
<path fill-rule="evenodd" clip-rule="evenodd" d="M27 43C35.8366 43 43 35.8366 43 27C43 18.1634 35.8366 11 27 11C18.1634 11 11 18.1634 11 27C11 35.8366 18.1634 43 27 43ZM42 27C42 34.732 34.732 42 27 42C19.268 42 12 34.732 12 27C12 19.268 19.268 12 27 12C34.732 12 42 19.268 42 27Z" fill="white"/>
<path fill-rule="evenodd" clip-rule="evenodd" d="M47 27C47 38.0457 38.0457 47 27 47C15.9543 47 7 38.0457 7 27C7 15.9543 15.9543 7 27 7C38.0457 7 47 15.9543 47 27ZM46 27C46 37.4934 37.4934 46 27 46C16.5066 46 8 37.4934 8 27C8 16.5066 16.5066 8 27 8C37.4934 8 46 16.5066 46 27Z" fill="white"/>
</svg>
