<svg width="55" height="55" viewBox="0 0 55 55" fill="none" xmlns="http://www.w3.org/2000/svg">
<circle cx="27.8828" cy="27.8828" r="26.5" fill="#121927" stroke="#7A49B8"/>
<path d="M41.9586 24.0242C42.6041 23.0972 43.6653 20.9048 41.9586 18.1541C41.6146 17.5829 41.1432 17.1005 40.5819 16.7453C40.4584 16.0943 39.9735 14.5269 38.0465 13.1719C36.1953 11.8722 33.4937 12.0781 33.0031 12.1293C32.5827 11.9943 32.1469 11.9139 31.7063 11.8901C30.3208 11.8242 29.2556 12.2067 28.4963 13.0335C28.2461 13.3159 28.0397 13.6347 27.8838 13.9792C27.7279 13.6345 27.5211 13.3157 27.2705 13.0335C26.512 12.2067 25.4258 11.8242 24.0621 11.8901C23.6215 11.9143 23.1858 11.9947 22.7653 12.1293C22.2771 12.0781 19.5722 11.8722 17.7162 13.1743C15.7876 14.5301 15.3027 16.1041 15.18 16.7486C14.6208 17.1044 14.1512 17.5864 13.8082 18.1565C12.1031 20.9072 13.1675 23.0997 13.8082 24.0274C13.0214 24.7062 11.5584 26.2964 11.9474 28.4758C12.2121 29.9569 13.0642 31.0955 14.2617 31.6188C14.6862 31.9663 16.9835 33.6216 22.0391 33.672V37.7713H20.2476C20.114 37.1153 19.7437 36.5327 19.2085 36.1363C18.6733 35.7399 18.0113 35.5579 17.3507 35.6256C16.6901 35.6934 16.0779 36.006 15.6327 36.5029C15.1876 36.9998 14.9411 37.6456 14.9411 38.3153C14.9411 38.985 15.1876 39.6308 15.6327 40.1277C16.0779 40.6246 16.6901 40.9372 17.3507 41.005C18.0113 41.0727 18.6733 40.8907 19.2085 40.4943C19.7437 40.0979 20.114 39.5153 20.2476 38.8593H22.5805C22.6518 38.8598 22.7224 38.8459 22.7884 38.8187C22.8543 38.7914 22.9142 38.7512 22.9646 38.7004C23.0151 38.6496 23.055 38.5893 23.0821 38.5228C23.1093 38.4564 23.1231 38.3851 23.1228 38.3133V33.6598H23.1454C23.1648 33.6598 23.1809 33.6493 23.1994 33.6468C23.3686 33.6771 23.5395 33.6967 23.7111 33.7054C25.5299 33.7054 26.637 33.1504 27.3181 32.3333V40.5374C26.6693 40.6797 26.0959 41.0597 25.7089 41.6038C25.322 42.148 25.1491 42.8177 25.2237 43.4831C25.2983 44.1485 25.6151 44.7623 26.1128 45.2056C26.6104 45.6489 27.2535 45.8902 27.9174 45.8826C28.5814 45.8751 29.2189 45.6194 29.7066 45.1649C30.1943 44.7105 30.4974 44.0897 30.5572 43.4228C30.617 42.7559 30.4292 42.0903 30.0303 41.555C29.6314 41.0197 29.0496 40.6527 28.3978 40.5252V32.256C29.0724 33.1146 30.1884 33.7054 32.0622 33.7054C32.2343 33.6967 32.4057 33.6771 32.5754 33.6468C32.5939 33.6468 32.6101 33.659 32.6294 33.6598H32.6448V38.3133C32.6448 38.3847 32.6587 38.4555 32.6859 38.5215C32.713 38.5875 32.7528 38.6475 32.8029 38.698C32.8531 38.7485 32.9126 38.7885 32.9781 38.8158C33.0436 38.843 33.1138 38.857 33.1846 38.8569H35.5167C35.6503 39.5129 36.0206 40.0955 36.5558 40.4919C37.091 40.8883 37.753 41.0702 38.4136 41.0025C39.0743 40.9348 39.6864 40.6222 40.1316 40.1253C40.5768 39.6284 40.8232 38.9825 40.8232 38.3129C40.8232 37.6432 40.5768 36.9973 40.1316 36.5004C39.6864 36.0035 39.0743 35.6909 38.4136 35.6232C37.753 35.5555 37.091 35.7374 36.5558 36.1338C36.0206 36.5302 35.6503 37.1128 35.5167 37.7688H33.7269V33.6696C38.7792 33.6191 41.0766 31.9655 41.5034 31.6171C42.7018 31.0947 43.5531 29.9545 43.8178 28.4733C44.2083 26.2939 42.7453 24.7037 41.9586 24.0242ZM17.6218 39.9279C17.305 39.928 16.9952 39.8334 16.7316 39.656C16.4681 39.4785 16.2627 39.2262 16.1413 38.931C16.02 38.6358 15.9882 38.3109 16.05 37.9975C16.1118 37.6841 16.2643 37.3961 16.4884 37.1702C16.7124 36.9442 16.9979 36.7903 17.3087 36.728C17.6195 36.6657 17.9417 36.6978 18.2344 36.8201C18.5271 36.9425 18.7773 37.1497 18.9532 37.4155C19.1291 37.6813 19.223 37.9937 19.2228 38.3133C19.2222 38.7413 19.0533 39.1516 18.7532 39.4543C18.4531 39.7569 18.0462 39.9272 17.6218 39.9279ZM38.1449 36.6978C38.4618 36.6977 38.7715 36.7923 39.035 36.9697C39.2986 37.1471 39.504 37.3993 39.6254 37.6945C39.7467 37.9897 39.7786 38.3145 39.7168 38.6279C39.6551 38.9413 39.5026 39.2293 39.2787 39.4553C39.0547 39.6813 38.7693 39.8352 38.4585 39.8976C38.1478 39.96 37.8257 39.9281 37.5329 39.8058C37.2402 39.6836 36.99 39.4765 36.8139 39.2108C36.6379 38.9452 36.5439 38.6328 36.5439 38.3133C36.5442 37.885 36.7129 37.4744 37.013 37.1715C37.3132 36.8686 37.7203 36.6983 38.1449 36.6978ZM39.2892 16.2229C38.0529 15.9445 36.7408 16.1822 35.7313 16.5484C35.7547 15.6703 35.6272 14.3682 34.8437 13.3517C34.8017 13.2972 34.7461 13.2581 34.7017 13.2068C35.5708 13.2785 36.6222 13.4933 37.4324 14.063C38.504 14.819 39.0261 15.6247 39.2892 16.2229ZM18.3368 14.0646C19.1437 13.4949 20.1928 13.2833 21.0659 13.2109C21.0215 13.2614 20.9666 13.2996 20.9255 13.3541C20.1411 14.3706 20.0136 15.6719 20.0378 16.55C19.0291 16.1822 17.7162 15.9454 16.4784 16.2245C16.7406 15.6255 17.2627 14.8198 18.3368 14.0646ZM23.7078 32.6198C22.7459 32.6198 22.0746 32.2576 21.818 31.6C21.5694 30.9628 21.7542 30.1352 22.2481 29.6705C22.6846 29.2636 23.2656 29.2139 23.9265 29.5338C24.0556 29.5963 24.204 29.6047 24.3391 29.5569C24.4743 29.5091 24.585 29.4092 24.6471 29.279C24.7092 29.1489 24.7174 28.9992 24.6701 28.8629C24.6227 28.7266 24.5236 28.6149 24.3945 28.5523C24.0541 28.3911 23.6868 28.2956 23.3116 28.2707C23.473 27.982 23.5854 27.6682 23.6441 27.3421C23.6547 27.2715 23.6514 27.1994 23.6344 27.1301C23.6173 27.0607 23.5869 26.9954 23.5449 26.9379C23.5029 26.8804 23.45 26.8318 23.3894 26.7949C23.3287 26.758 23.2614 26.7335 23.1914 26.7228C23.1213 26.7121 23.0499 26.7155 22.9811 26.7326C22.9123 26.7498 22.8476 26.7804 22.7906 26.8228C22.7336 26.8652 22.6854 26.9185 22.6488 26.9797C22.6122 27.0409 22.5879 27.1087 22.5773 27.1794C22.4893 27.7645 21.851 28.5401 21.6154 28.7899C21.6106 28.7956 21.609 28.8029 21.6033 28.8094C21.5751 28.8339 21.5404 28.8453 21.5121 28.8713C20.6987 29.6339 20.4058 30.9482 20.8133 31.9964C20.8997 32.1965 21.0114 32.3844 21.1458 32.5555C19.2373 32.4513 17.8139 32.1005 16.8133 31.7335C17.3961 31.5383 17.9171 31.1907 18.3231 30.726C18.4104 30.6171 18.4527 30.4784 18.4411 30.3389C18.4295 30.1993 18.365 30.0696 18.2609 29.9769C18.1569 29.8841 18.0214 29.8354 17.8826 29.841C17.7439 29.8465 17.6126 29.9058 17.5161 30.0066C17.2133 30.3544 16.8184 30.608 16.3778 30.7377C15.9372 30.8674 15.4691 30.8679 15.0283 30.739C13.9898 30.4477 13.2377 29.5272 13.0109 28.278C12.7156 26.626 13.9292 25.3531 14.5377 24.8307C14.8548 25.109 15.3446 25.4874 15.8893 25.6982C15.9514 25.7221 16.0173 25.7345 16.0838 25.7348C16.2097 25.7346 16.3316 25.69 16.4283 25.6087C16.5251 25.5274 16.5906 25.4146 16.6136 25.2897C16.6366 25.1649 16.6156 25.0359 16.5542 24.925C16.4928 24.8141 16.3949 24.7283 16.2775 24.6826C15.6045 24.4229 14.9726 23.754 14.9646 23.7442C14.9565 23.7345 14.9581 23.7442 14.9557 23.7377C14.9543 23.7351 14.9527 23.7326 14.9508 23.7304C14.8701 23.649 12.9254 21.6315 14.7225 18.7311C16.4913 15.8762 20.2517 17.8172 20.4123 17.901C20.5026 17.9487 20.6045 17.9696 20.7062 17.9613C20.8078 17.953 20.9051 17.9158 20.9866 17.854C21.0682 17.7923 21.1307 17.7085 21.1671 17.6124C21.2034 17.5163 21.2119 17.4118 21.1918 17.311C21.1918 17.2906 20.7996 15.2886 21.7768 14.0215C22.2715 13.381 23.0574 13.0302 24.1169 12.9773C25.1369 12.9204 25.9447 13.1922 26.4797 13.77C27.1575 14.5073 27.3189 15.6158 27.3391 16.362C27.3265 16.4017 27.3184 16.4426 27.3149 16.4841C27.3149 17.4705 27.0421 18.15 26.5265 18.4495C26.0649 18.7197 25.4524 18.6521 25.1111 18.4495C24.5809 18.1402 24.2783 17.8115 24.2364 17.4998C24.192 17.1653 24.4551 16.8821 24.4688 16.8682C24.5693 16.7668 24.626 16.6295 24.6268 16.4862C24.6275 16.3428 24.5721 16.2049 24.4727 16.1025C24.3732 16 24.2377 15.9413 24.0956 15.939C23.9534 15.9367 23.8161 15.991 23.7135 16.0902C23.6457 16.157 23.059 16.76 23.1639 17.6259C23.2446 18.3006 23.7199 18.8947 24.5705 19.3911C24.9573 19.605 25.3921 19.7154 25.8333 19.7117C26.2656 19.7144 26.6909 19.6022 27.0663 19.3862C27.1528 19.3354 27.2359 19.2789 27.3149 19.2169V24.3521C27.1962 24.2163 27.0693 24.088 26.9348 23.968C25.7889 22.9711 24.1379 22.5487 22.0124 22.7147C21.3404 22.7572 20.6881 22.9605 20.1096 23.308C20.0806 23.2993 20.0509 23.293 20.0209 23.2893C20.0072 23.2893 18.6846 23.2559 17.8583 21.8708C17.4209 21.1384 17.8825 20.0804 17.8865 20.069C17.926 19.942 17.9179 19.8048 17.8639 19.6833C17.8099 19.5618 17.7136 19.4646 17.5933 19.4099C17.4729 19.3551 17.3369 19.3468 17.2109 19.3864C17.0848 19.4259 16.9775 19.5107 16.9093 19.6246C16.8811 19.6889 16.2048 21.2124 16.9375 22.4388C17.4226 23.2789 18.1986 23.9082 19.1163 24.2057C18.2198 25.345 17.9866 26.8726 18.039 27.8589C18.0468 27.9976 18.1069 28.128 18.207 28.2235C18.3071 28.319 18.4395 28.3722 18.5773 28.3724H18.6039C18.6747 28.3686 18.7441 28.3507 18.808 28.3197C18.872 28.2888 18.9293 28.2454 18.9766 28.1921C19.0239 28.1388 19.0603 28.0766 19.0837 28.0091C19.1071 27.9416 19.1171 27.8701 19.1131 27.7987C19.1042 27.6465 18.9436 24.0551 22.0988 23.8069C26.9332 23.4285 27.2979 26.5959 27.3189 26.7895V27.6156C27.3189 30.6365 27.0639 32.6173 23.7078 32.6173V32.6198ZM29.4856 43.1783C29.4852 43.4977 29.391 43.8099 29.2148 44.0753C29.0386 44.3408 28.7884 44.5476 28.4956 44.6696C28.2029 44.7916 27.8809 44.8234 27.5703 44.7609C27.2597 44.6984 26.9744 44.5444 26.7506 44.3184C26.5267 44.0924 26.3743 43.8045 26.3126 43.4912C26.251 43.1779 26.2828 42.8532 26.4041 42.5581C26.5254 42.263 26.7307 42.0108 26.994 41.8334C27.2574 41.6559 27.567 41.5612 27.8838 41.5612C28.3083 41.5617 28.7154 41.7319 29.0157 42.0346C29.3159 42.3373 29.4849 42.7477 29.4856 43.1759V43.1783ZM42.7558 28.2853C42.5331 29.5338 41.7802 30.4534 40.7425 30.7455C40.3015 30.8739 39.8334 30.8733 39.3928 30.7436C38.9521 30.6139 38.5572 30.3606 38.2539 30.0131C38.1574 29.9123 38.0261 29.853 37.8874 29.8475C37.7486 29.8419 37.6131 29.8906 37.509 29.9834C37.405 30.0761 37.3405 30.2058 37.3289 30.3454C37.3173 30.4849 37.3596 30.6236 37.4469 30.7325C37.8533 31.1921 38.3723 31.5359 38.9519 31.7294C37.9504 32.0957 36.527 32.4464 34.6218 32.5506C34.756 32.3799 34.8675 32.1922 34.9534 31.9923C35.3618 30.9441 35.0688 29.6322 34.2546 28.8672C34.2272 28.8412 34.1925 28.8298 34.1642 28.8054C34.1586 28.7989 34.157 28.7915 34.1513 28.7858C33.9133 28.536 33.2774 27.7604 33.1903 27.1753C33.1672 27.0335 33.0902 26.9063 32.9757 26.8208C32.8612 26.7353 32.7182 26.6981 32.577 26.7171C32.4354 26.7386 32.3081 26.8159 32.2231 26.9321C32.138 27.0482 32.1022 27.1937 32.1235 27.3364C32.1819 27.6624 32.294 27.9763 32.4551 28.265C32.0801 28.2895 31.713 28.3851 31.373 28.5466C31.2434 28.6087 31.1436 28.7203 31.0956 28.8566C31.0475 28.993 31.0552 29.143 31.1168 29.2737C31.1785 29.4044 31.289 29.5051 31.4243 29.5535C31.5595 29.602 31.7082 29.5943 31.8378 29.5321C32.4979 29.2123 33.0797 29.2587 33.5155 29.6688C34.0101 30.1311 34.1949 30.9612 33.9456 31.5984C33.6898 32.256 33.0184 32.6181 32.0557 32.6181C28.7012 32.6181 28.4503 30.6373 28.4503 27.6164V26.7944C28.5633 26.0192 28.9491 25.3109 29.5372 24.7989C30.4571 23.9981 31.8427 23.6653 33.6639 23.8069C36.8054 24.051 36.6577 27.6473 36.6496 27.8003C36.6426 27.944 36.6923 28.0846 36.7879 28.1914C36.8835 28.2982 37.0172 28.3624 37.1596 28.37H37.1895C37.3272 28.3698 37.4595 28.3165 37.5595 28.221C37.6594 28.1255 37.7193 27.9951 37.7269 27.8565C37.781 26.8701 37.5462 25.3409 36.6488 24.2032C37.5666 23.9059 38.3427 23.2766 38.8276 22.4364C39.5603 21.21 38.8841 19.6865 38.8558 19.6222C38.796 19.4913 38.6873 19.3897 38.5533 19.3396C38.4194 19.2895 38.2712 19.295 38.1412 19.3549C38.0113 19.4147 37.9101 19.5241 37.86 19.659C37.8099 19.794 37.8148 19.9434 37.8738 20.0747C37.8786 20.0853 38.3386 21.1465 37.9028 21.8749C37.0862 23.2396 35.7911 23.2917 35.7394 23.2934C35.709 23.2969 35.679 23.3034 35.6498 23.3129C35.0716 22.9648 34.4192 22.7611 33.7471 22.7188C31.6264 22.552 29.9754 22.9752 28.8295 23.9721C28.6943 24.0921 28.5669 24.2207 28.4478 24.357V19.2186C28.5281 19.281 28.6122 19.3384 28.6996 19.3903C29.0751 19.6062 29.5004 19.7185 29.9326 19.7158C30.3741 19.7193 30.8091 19.609 31.1963 19.3952C32.046 18.8987 32.5181 18.3046 32.602 17.63C32.7069 16.7641 32.1178 16.1651 32.0525 16.0943C31.9497 15.9936 31.8116 15.9382 31.6683 15.9403C31.5251 15.9423 31.3885 16.0017 31.2887 16.1053C31.1889 16.2089 31.1339 16.3482 31.136 16.4927C31.138 16.6371 31.1969 16.7749 31.2996 16.8756C31.2996 16.8756 31.5707 17.1637 31.5296 17.4965C31.4916 17.8106 31.189 18.1411 30.6556 18.4536C30.3127 18.6529 29.701 18.7197 29.2394 18.4536C28.7238 18.1541 28.4511 17.477 28.4511 16.4882C28.4478 16.4447 28.4391 16.4017 28.4252 16.3604C28.4478 15.628 28.6052 14.5155 29.2887 13.7749C29.8213 13.1963 30.6282 12.9245 31.6506 12.9814C32.7061 13.0335 33.4913 13.3883 33.9843 14.0215C34.9599 15.2805 34.5782 17.2955 34.5742 17.3158C34.5545 17.4165 34.5635 17.5208 34.6 17.6166C34.6364 17.7124 34.699 17.7958 34.7804 17.8574C34.8618 17.9189 34.9588 17.956 35.0602 17.9645C35.1617 17.9729 35.2634 17.9523 35.3537 17.905C35.5151 17.8237 39.273 15.877 41.0435 18.7351C42.8397 21.6356 40.8982 23.6498 40.8159 23.732C40.8159 23.732 40.8159 23.7393 40.8095 23.7418C40.803 23.7442 40.8038 23.7418 40.8014 23.7483C40.6263 23.9363 40.0509 24.4693 39.4877 24.6883C39.3702 24.734 39.2724 24.8198 39.211 24.9307C39.1496 25.0416 39.1286 25.1706 39.1515 25.2954C39.1745 25.4203 39.2401 25.5331 39.3368 25.6144C39.4336 25.6957 39.5554 25.7403 39.6814 25.7405C39.7478 25.7402 39.8137 25.7278 39.8758 25.7039C40.4181 25.4931 40.9103 25.1147 41.2267 24.8364C41.8375 25.3548 43.0544 26.6276 42.7558 28.2805V28.2853Z" fill="white"/>
</svg>
