<svg width="54" height="54" viewBox="0 0 54 54" fill="none" xmlns="http://www.w3.org/2000/svg">
<path d="M53.5 27C53.5 41.6355 41.6355 53.5 27 53.5C12.3645 53.5 0.5 41.6355 0.5 27C0.5 12.3645 12.3645 0.5 27 0.5C41.6355 0.5 53.5 12.3645 53.5 27Z" fill="#121927" stroke="#7A49B8"/>
<path d="M27.3838 17.187L26.7129 16.9293L26.6651 17.0537V17.187H27.3838ZM27.4599 17.333L27.7471 16.6741L27.6097 16.6142H27.4599V17.333ZM32.6027 30.2242C32.6295 30.6202 32.9724 30.9195 33.3684 30.8927C33.7644 30.8659 34.0638 30.5231 34.0369 30.127L32.6027 30.2242ZM27.2456 15.5428L26.7129 16.9293L28.0548 17.4448L28.5874 16.0584L27.2456 15.5428ZM26.6651 17.187C26.6651 17.1999 26.6648 17.2439 26.668 17.2904C26.6711 17.3353 26.6796 17.4232 26.7144 17.5234C26.7512 17.6292 26.8282 17.7787 26.9862 17.8966C27.1478 18.0171 27.3232 18.0517 27.4599 18.0517V16.6142C27.5587 16.6142 27.7055 16.6397 27.8456 16.7442C27.9822 16.8462 28.0449 16.9728 28.0722 17.0514C28.0975 17.1241 28.1013 17.1801 28.102 17.1907C28.1029 17.2031 28.1026 17.2106 28.1026 17.187H26.6651ZM27.1727 17.9919L28.8908 18.7407L29.4651 17.4228L27.7471 16.6741L27.1727 17.9919ZM33.0724 19.1636C32.8659 20.661 32.2817 25.4847 32.6027 30.2242L34.0369 30.127C33.7261 25.5368 34.2937 20.8296 34.4964 19.36L33.0724 19.1636ZM33.0022 18.9402C33.0574 18.9983 33.0841 19.0786 33.0724 19.1636L34.4964 19.36C34.567 18.8481 34.4048 18.3301 34.0454 17.9511L33.0022 18.9402ZM32.734 18.8773C32.8299 18.8435 32.9362 18.8705 33.0022 18.9402L34.0454 17.9511C33.5854 17.4659 32.8824 17.3014 32.2572 17.5211L32.734 18.8773ZM28.8908 18.7407C30.1067 19.2706 31.4857 19.3161 32.734 18.8773L32.2572 17.5211C31.3485 17.8406 30.3451 17.8063 29.4651 17.4228L28.8908 18.7407Z" fill="white"/>
<path d="M23.4307 30.8944C23.4307 31.2913 23.7525 31.6131 24.1494 31.6131C24.5464 31.6131 24.8682 31.2913 24.8682 30.8944H23.4307ZM32.6307 30.8944C32.6307 31.2913 32.9525 31.6131 33.3494 31.6131C33.7464 31.6131 34.0682 31.2913 34.0682 30.8944H32.6307ZM24.8682 30.8944C24.8682 29.2328 26.5254 27.66 28.7494 27.66V26.2225C25.9422 26.2225 23.4307 28.2434 23.4307 30.8944H24.8682ZM28.7494 27.66C30.9735 27.66 32.6307 29.2328 32.6307 30.8944H34.0682C34.0682 28.2434 31.5567 26.2225 28.7494 26.2225V27.66Z" fill="white"/>
<path d="M13.253 26.7817C12.9548 27.0438 12.9257 27.4979 13.1878 27.796C13.4499 28.0942 13.904 28.1234 14.2022 27.8612L13.253 26.7817ZM22.0651 27.3214L22.5397 26.7817L22.529 26.7723L22.518 26.7633L22.0651 27.3214ZM23.0713 30.8944C23.0713 31.2913 23.3931 31.6131 23.7901 31.6131C24.187 31.6131 24.5088 31.2913 24.5088 30.8944H23.0713ZM14.2022 27.8612C15.132 27.0436 16.3937 26.5819 17.8963 26.5819V25.1444C16.0927 25.1444 14.4794 25.7034 13.253 26.7817L14.2022 27.8612ZM17.8963 26.5819C19.3761 26.5819 20.6554 27.103 21.6121 27.8795L22.518 26.7633C21.3185 25.7899 19.7228 25.1444 17.8963 25.1444V26.5819ZM21.5905 27.8612C22.5405 28.6966 23.0713 29.7492 23.0713 30.8944H24.5088C24.5088 29.2687 23.7459 27.8422 22.5397 26.7817L21.5905 27.8612Z" fill="white"/>
<path d="M17.6088 38.0819C19.0463 39.3037 21.0588 40.0944 23.2151 40.0944C25.3713 40.0944 27.3838 39.3037 28.8213 38.0819" fill="white"/>
<path d="M24.9429 36.2391C24.6 36.0391 24.1599 36.1549 23.9598 36.4978C23.7598 36.8406 23.8757 37.2807 24.2185 37.4808L24.9429 36.2391ZM31.9119 38.2255L32.0301 38.9346L32.0389 38.933L31.9119 38.2255ZM40.8244 23.2037L41.5098 22.9872L41.5081 22.9818L41.5063 22.9764L40.8244 23.2037ZM40.6088 22.6287L41.2907 22.4014L41.2784 22.3647L41.2623 22.3294L40.6088 22.6287ZM37.0869 14.938L37.7404 14.6388L37.7353 14.6276L37.7298 14.6166L37.0869 14.938ZM29.6119 11.3443L29.9 10.6858L29.8895 10.6812L29.8789 10.677L29.6119 11.3443ZM28.5338 11.6318L29.1274 12.0372L29.1393 12.0197L29.1501 12.0016L28.5338 11.6318ZM26.5213 14.5787L25.9278 14.1734L25.9002 14.2136L25.8785 14.2572L26.5213 14.5787ZM26.5932 14.938L26.2718 15.581L26.2826 15.5863L26.2937 15.5914L26.5932 14.938ZM31.5649 15.0809C31.7231 14.7169 31.5563 14.2935 31.1923 14.1352C30.8282 13.9769 30.4048 14.1437 30.2465 14.5077L31.5649 15.0809ZM24.2185 37.4808C26.035 38.5403 28.3624 39.5459 32.0301 38.9346L31.7938 37.5166C28.5615 38.0553 26.5764 37.192 24.9429 36.2391L24.2185 37.4808ZM32.0389 38.933C33.4707 38.676 34.2722 38.0285 35.1179 37.4775C35.9459 36.9381 36.9788 36.3594 39.0395 35.9959L38.7897 34.5803C36.5051 34.9833 35.2925 35.6481 34.3332 36.273C33.3918 36.8864 32.8646 37.3243 31.7849 37.5181L32.0389 38.933ZM42.5521 33.3704C42.8422 32.5661 42.9254 31.5847 42.9048 30.5931C42.8839 29.5906 42.7553 28.522 42.5847 27.5142C42.2438 25.4995 41.7252 23.6693 41.5098 22.9872L40.139 23.4201C40.3399 24.0562 40.8401 25.8203 41.1674 27.7541C41.3309 28.7205 41.4487 29.7146 41.4676 30.6229C41.4867 31.5422 41.4028 32.3199 41.1998 32.8826L42.5521 33.3704ZM41.5063 22.9764C41.4629 22.8461 41.4196 22.7382 41.384 22.6493C41.3477 22.5585 41.3192 22.4867 41.2907 22.4014L39.9269 22.856C39.9703 22.9863 40.0137 23.0941 40.0493 23.1831C40.0856 23.2738 40.1141 23.3457 40.1426 23.431L41.5063 22.9764ZM41.2623 22.3294L37.7404 14.6388L36.4335 15.2373L39.9553 22.9279L41.2623 22.3294ZM37.7298 14.6166C37.6814 14.5199 37.627 14.4315 37.5677 14.3503L36.4074 15.1989C36.4198 15.2159 36.4321 15.2355 36.4441 15.2595L37.7298 14.6166ZM36.2204 13.451L29.9 10.6858L29.3239 12.0028L35.6443 14.768L36.2204 13.451ZM29.8789 10.677C29.563 10.5506 29.1987 10.5215 28.8597 10.5985C28.5157 10.6767 28.1476 10.8786 27.9175 11.262L29.1501 12.0016C29.1357 12.0257 29.1269 12.0119 29.1782 12.0003C29.2029 11.9947 29.2335 11.9921 29.2664 11.9946C29.2996 11.9972 29.3267 12.0044 29.345 12.0116L29.8789 10.677ZM27.9403 11.2265L25.9278 14.1734L27.1149 14.984L29.1274 12.0372L27.9403 11.2265ZM25.8785 14.2572C25.8073 14.3995 25.7274 14.6245 25.7649 14.887C25.809 15.1961 26.0007 15.4454 26.2718 15.581L26.9146 14.2952C26.9659 14.3208 27.0322 14.3674 27.0892 14.4446C27.1469 14.5226 27.177 14.6075 27.1879 14.6837C27.1982 14.7559 27.1903 14.8118 27.1831 14.8437C27.1759 14.8758 27.1669 14.8947 27.1642 14.9002L25.8785 14.2572ZM26.2937 15.5914L29.6584 17.1336L30.2573 15.8268L26.8927 14.2847L26.2937 15.5914ZM30.8818 16.652L31.5649 15.0809L30.2465 14.5077L29.5635 16.0788L30.8818 16.652ZM30.3846 17.1869C30.7162 17.0691 30.835 16.7943 30.8706 16.6965C30.8802 16.67 30.8872 16.6472 30.8914 16.633C30.8935 16.6257 30.8954 16.6191 30.8967 16.6147C30.8984 16.6085 30.8986 16.6081 30.8995 16.6048C30.9032 16.5919 30.8966 16.6178 30.8818 16.652L29.5635 16.0788C29.5368 16.1401 29.5215 16.1951 29.5169 16.2112C29.508 16.2425 29.5135 16.2223 29.5199 16.2044C29.5281 16.1821 29.5543 16.1138 29.6142 16.0386C29.6819 15.9536 29.7793 15.8764 29.9032 15.8324L30.3846 17.1869ZM42.1732 34.0728C42.3044 33.8843 42.4515 33.6491 42.5521 33.3704L41.1998 32.8826C41.1616 32.9888 41.0958 33.1045 40.9932 33.2519L42.1732 34.0728ZM29.6584 17.1336C29.7083 17.1565 29.7956 17.1935 29.9031 17.2159C30.0073 17.2377 30.1856 17.2577 30.3846 17.1869L29.9032 15.8324C30.044 15.7824 30.1574 15.8005 30.1972 15.8088C30.2403 15.8179 30.2637 15.8297 30.2573 15.8268L29.6584 17.1336ZM37.5677 14.3503C37.3596 14.0658 37.0954 13.8805 36.861 13.7499C36.6371 13.6253 36.386 13.5235 36.2204 13.451L35.6443 14.768C35.8643 14.8642 36.0166 14.9251 36.1618 15.0059C36.2964 15.0808 36.367 15.1437 36.4074 15.1989L37.5677 14.3503ZM39.0395 35.9959C40.26 35.7806 41.4278 35.1444 42.1732 34.0728L40.9932 33.2519C40.5026 33.9572 39.7008 34.4195 38.7897 34.5803L39.0395 35.9959Z" fill="white"/>
<path d="M20.364 36.8455C20.6339 36.5544 20.6167 36.0997 20.3256 35.8298C20.0346 35.5599 19.5798 35.5771 19.3099 35.8681L20.364 36.8455ZM15.4526 43.4006C15.4526 43.7976 15.7743 44.1194 16.1713 44.1194C16.5683 44.1194 16.8901 43.7976 16.8901 43.4006H15.4526ZM19.3099 35.8681L17.5614 37.7537L18.6155 38.7312L20.364 36.8455L19.3099 35.8681ZM15.4526 43.1296V43.4006H16.8901V43.1296H15.4526ZM17.5614 37.7537C16.2058 39.2157 15.4526 41.1358 15.4526 43.1296H16.8901C16.8901 41.4983 17.5063 39.9273 18.6155 38.7312L17.5614 37.7537Z" fill="white"/>
</svg>
