<svg width="54" height="54" viewBox="0 0 54 54" fill="none" xmlns="http://www.w3.org/2000/svg">
<path d="M53.5 27C53.5 41.6355 41.6355 53.5 27 53.5C12.3645 53.5 0.5 41.6355 0.5 27C0.5 12.3645 12.3645 0.5 27 0.5C41.6355 0.5 53.5 12.3645 53.5 27Z" fill="#121927" stroke="#7A49B8"/>
<path d="M26.1673 9.81641C26.1673 9.81641 18.3487 26.0209 15.7959 29.5436C13.1447 33.2036 16.107 38.0828 21.8943 38.2406C27.7274 38.4007 27.5695 42.3764 26.9862 43.8083M34.8701 28.5783C34.8701 28.5783 40.3852 35.1022 34.8701 38.9726M31.4881 34.4933C31.4881 34.4933 27.6177 30.2638 22.8438 33.3061" stroke="white" stroke-width="2" stroke-miterlimit="10" stroke-linecap="round" stroke-linejoin="round"/>
</svg>
