<svg width="54" height="54" viewBox="0 0 54 54" fill="none" xmlns="http://www.w3.org/2000/svg">
<path d="M53.5 27C53.5 41.6355 41.6355 53.5 27 53.5C12.3645 53.5 0.5 41.6355 0.5 27C0.5 12.3645 12.3645 0.5 27 0.5C41.6355 0.5 53.5 12.3645 53.5 27Z" fill="#121927" stroke="#7A49B8"/>
<path d="M27.0004 44.8124C26.5029 44.8129 26.0177 44.6572 25.6134 44.3673C25.2092 44.0773 24.9062 43.6677 24.7472 43.1962C24.5883 42.7248 24.5814 42.2153 24.7275 41.7397C24.8736 41.2642 25.1654 40.8465 25.5617 40.5457L25.3836 37.5663C24.6059 37.4491 23.844 37.2441 23.1125 36.9553L21.4696 39.449C21.6619 39.9075 21.7055 40.4149 21.5942 40.8995C21.4829 41.3841 21.2223 41.8215 20.8492 42.1502C20.476 42.4788 20.0092 42.682 19.5144 42.7312C19.0196 42.7804 18.5218 42.673 18.0913 42.4242C17.6608 42.1755 17.3192 41.7979 17.1147 41.3446C16.9102 40.8914 16.8531 40.3854 16.9514 39.898C17.0498 39.4106 17.2986 38.9664 17.6629 38.6279C18.0272 38.2895 18.4885 38.0739 18.9818 38.0116L20.3207 35.3433C19.7051 34.8512 19.1461 34.2922 18.654 33.6766L15.9881 35.0155C15.9258 35.5088 15.7102 35.9701 15.3717 36.3344C15.0333 36.6986 14.589 36.9475 14.1016 37.0458C13.6142 37.1442 13.1082 37.0871 12.655 36.8826C12.2018 36.6781 11.8242 36.3365 11.5754 35.906C11.3267 35.4754 11.2193 34.9777 11.2685 34.4829C11.3176 33.9881 11.5209 33.5212 11.8495 33.1481C12.1781 32.7749 12.6156 32.5143 13.1002 32.403C13.5848 32.2917 14.0921 32.3353 14.5506 32.5277L17.0444 30.8854C16.7549 30.1539 16.5494 29.392 16.4316 28.6143L13.4522 28.4362C13.1511 28.8316 12.7336 29.1226 12.2584 29.2683C11.7832 29.4139 11.2743 29.4068 10.8033 29.2479C10.3324 29.089 9.92318 28.7864 9.6333 28.3827C9.34342 27.979 9.1875 27.4945 9.1875 26.9975C9.1875 26.5005 9.34342 26.016 9.6333 25.6123C9.92318 25.2086 10.3324 24.906 10.8033 24.7471C11.2743 24.5882 11.7832 24.5811 12.2584 24.7267C12.7336 24.8724 13.1511 25.1634 13.4522 25.5588L16.4316 25.3807C16.5488 24.603 16.7538 23.8411 17.0426 23.1096L14.5488 21.4667C14.09 21.6589 13.5825 21.7022 13.0978 21.5905C12.613 21.4788 12.1756 21.2178 11.8472 20.8441C11.5188 20.4705 11.316 20.0032 11.2675 19.5082C11.2189 19.0131 11.3269 18.5153 11.5764 18.085C11.8259 17.6546 12.2042 17.3135 12.658 17.1097C13.1118 16.9059 13.6181 16.8497 14.1055 16.9491C14.5929 17.0484 15.0368 17.2983 15.3746 17.6634C15.7123 18.0286 15.9269 18.4906 15.9881 18.9843L18.6564 20.3226C19.1485 19.707 19.7075 19.148 20.3231 18.6559L18.9847 15.9876C18.4914 15.9253 18.0301 15.7097 17.6659 15.3712C17.3016 15.0328 17.0528 14.5885 16.9544 14.1011C16.8561 13.6137 16.9131 13.1078 17.1177 12.6545C17.3222 12.2013 17.6638 11.8237 18.0943 11.5749C18.5248 11.3262 19.0225 11.2188 19.5173 11.268C20.0121 11.3171 20.479 11.5204 20.8522 11.849C21.2253 12.1776 21.4859 12.6151 21.5972 13.0997C21.7085 13.5843 21.6649 14.0916 21.4726 14.5501L23.1155 17.0439C23.8466 16.754 24.6083 16.5484 25.386 16.4311L25.5641 13.4517C25.1686 13.1506 24.8776 12.7331 24.732 12.2579C24.5864 11.7827 24.5935 11.2738 24.7523 10.8029C24.9112 10.3319 25.2138 9.92269 25.6175 9.63281C26.0212 9.34293 26.5057 9.18701 27.0027 9.18701C27.4998 9.18701 27.9842 9.34293 28.388 9.63281C28.7917 9.92269 29.0943 10.3319 29.2531 10.8029C29.412 11.2738 29.4191 11.7827 29.2735 12.2579C29.1279 12.7331 28.8368 13.1506 28.4414 13.4517L28.6195 16.4311C29.3973 16.5478 30.1593 16.7528 30.8906 17.0421L32.5335 14.5483C32.3412 14.0898 32.2976 13.5825 32.4089 13.0979C32.5202 12.6133 32.7808 12.1758 33.1539 11.8472C33.5271 11.5186 33.994 11.3154 34.4887 11.2662C34.9835 11.217 35.4813 11.3244 35.9118 11.5731C36.3423 11.8219 36.6839 12.1995 36.8884 12.6527C37.0929 13.106 37.15 13.6119 37.0517 14.0994C36.9533 14.5868 36.7045 15.031 36.3402 15.3694C35.9759 15.7079 35.5146 15.9235 35.0213 15.9858L33.6824 18.6541C34.298 19.1462 34.857 19.7052 35.3491 20.3208L38.0127 18.9843C38.0749 18.4909 38.2904 18.0295 38.6288 17.6652C38.9672 17.3008 39.4114 17.0519 39.8988 16.9534C40.3862 16.855 40.8922 16.912 41.3455 17.1165C41.7988 17.3209 42.1765 17.6625 42.4253 18.093C42.6741 18.5235 42.7815 19.0213 42.7324 19.5161C42.6832 20.0109 42.48 20.4779 42.1514 20.851C41.8227 21.2242 41.3853 21.4848 40.9006 21.5962C40.416 21.7075 39.9087 21.6639 39.4501 21.4715L36.9564 23.1144C37.2458 23.8458 37.4514 24.6077 37.5691 25.3855L40.5486 25.5636C40.8496 25.1682 41.2672 24.8771 41.7424 24.7315C42.2176 24.5859 42.7265 24.593 43.1974 24.7519C43.6683 24.9107 44.0776 25.2133 44.3674 25.617C44.6573 26.0208 44.8132 26.5052 44.8132 27.0023C44.8132 27.4993 44.6573 27.9838 44.3674 28.3875C44.0776 28.7912 43.6683 29.0938 43.1974 29.2527C42.7265 29.4115 42.2176 29.4186 41.7424 29.273C41.2672 29.1274 40.8496 28.8364 40.5486 28.4409L37.5691 28.619C37.4519 29.3967 37.247 30.1586 36.9582 30.8901L39.4519 32.5324C39.9104 32.3401 40.4177 32.2965 40.9023 32.4078C41.387 32.5191 41.8244 32.7797 42.153 33.1528C42.4817 33.526 42.6849 33.9929 42.7341 34.4877C42.7832 34.9824 42.6759 35.4802 42.4271 35.9107C42.1783 36.3412 41.8007 36.6828 41.3475 36.8873C40.8943 37.0919 40.3883 37.1489 39.9009 37.0506C39.4135 36.9522 38.9693 36.7034 38.6308 36.3391C38.2924 35.9749 38.0768 35.5136 38.0144 35.0203L35.3461 33.6819C34.854 34.2975 34.2951 34.8565 33.6795 35.3486L35.016 38.0122C35.5093 38.0745 35.9706 38.2901 36.3349 38.6285C36.6991 38.967 36.948 39.4112 37.0463 39.8986C37.1447 40.386 37.0876 40.892 36.8831 41.3452C36.6786 41.7985 36.337 42.1761 35.9065 42.4248C35.4759 42.6736 34.9782 42.781 34.4834 42.7318C33.9886 42.6826 33.5217 42.4794 33.1486 42.1508C32.7754 41.8221 32.5148 41.3847 32.4035 40.9001C32.2922 40.4155 32.3358 39.9081 32.5282 39.4496L30.8853 36.9559C30.154 37.2453 29.3923 37.4508 28.6148 37.5686L28.4366 40.5481C28.8318 40.8491 29.1226 41.2664 29.2682 41.7412C29.4138 42.2161 29.4068 42.7247 29.2483 43.1955C29.0897 43.6662 28.7876 44.0754 28.3843 44.3654C27.9811 44.6555 27.4971 44.8118 27.0004 44.8124ZM22.8922 35.6211C22.977 35.6212 23.0608 35.6394 23.138 35.6746C24.0477 36.0868 25.0182 36.3487 26.0118 36.45C26.1517 36.4647 26.2818 36.5285 26.379 36.6302C26.4763 36.7319 26.5342 36.8647 26.5426 37.0052L26.7676 40.823C26.7744 40.9373 26.748 41.0512 26.6915 41.1509C26.635 41.2505 26.5509 41.3317 26.4494 41.3847C26.2141 41.5079 26.0269 41.7064 25.9178 41.9486C25.8086 42.1907 25.7838 42.4624 25.8473 42.7203C25.9107 42.9782 26.0588 43.2074 26.2678 43.3712C26.4769 43.5351 26.7348 43.6241 27.0004 43.6241C27.266 43.6241 27.5239 43.5351 27.7329 43.3712C27.9419 43.2074 28.09 42.9782 28.1535 42.7203C28.2169 42.4624 28.1921 42.1907 28.083 41.9486C27.9738 41.7064 27.7866 41.5079 27.5514 41.3847C27.4498 41.3317 27.3657 41.2505 27.3092 41.1509C27.2528 41.0512 27.2263 40.9373 27.2331 40.823L27.4581 37.0052C27.4665 36.8647 27.5245 36.7319 27.6217 36.6302C27.7189 36.5285 27.8491 36.4647 27.989 36.45C28.9825 36.3487 29.9531 36.0868 30.8627 35.6746C30.9916 35.6158 31.1372 35.6051 31.2733 35.6443C31.4094 35.6835 31.527 35.77 31.6049 35.8883L33.7127 39.0886C33.7758 39.1852 33.8094 39.2981 33.8094 39.4134C33.8094 39.5288 33.7758 39.6416 33.7127 39.7382C33.5955 39.9206 33.5312 40.1319 33.5269 40.3487C33.5226 40.5654 33.5785 40.7792 33.6884 40.9661C33.8074 41.1684 33.9835 41.331 34.1946 41.4337C34.4057 41.5363 34.6424 41.5744 34.875 41.543C35.1077 41.5117 35.3259 41.4124 35.5023 41.2576C35.6787 41.1028 35.8055 40.8993 35.8668 40.6728C35.9136 40.4928 35.9176 40.3044 35.8785 40.1227C35.8394 39.9409 35.7583 39.7708 35.6416 39.626C35.525 39.4812 35.3761 39.3657 35.2068 39.2888C35.0376 39.2119 34.8526 39.1757 34.6669 39.183C34.5523 39.1882 34.4386 39.16 34.3397 39.102C34.2407 39.0439 34.1607 38.9584 34.1093 38.8559L32.3934 35.4359C32.3303 35.31 32.3139 35.1657 32.3473 35.0289C32.3807 34.8921 32.4616 34.7716 32.5757 34.6889C33.3871 34.1017 34.0998 33.389 34.6871 32.5776C34.7696 32.4634 34.8901 32.3824 35.0269 32.3489C35.1638 32.3154 35.308 32.3316 35.434 32.3947L38.854 34.1112C38.9566 34.1626 39.042 34.2426 39.1001 34.3416C39.1582 34.4405 39.1863 34.5542 39.1812 34.6688C39.1703 34.934 39.2486 35.1951 39.4036 35.4106C39.5586 35.6261 39.7813 35.7834 40.0362 35.8575C40.2911 35.9316 40.5634 35.9182 40.8097 35.8194C41.0561 35.7205 41.2622 35.5421 41.3952 35.3124C41.5525 35.0397 41.5954 34.7158 41.5146 34.4115C41.4338 34.1073 41.236 33.8473 40.9642 33.6885C40.7774 33.5792 40.5641 33.5238 40.3477 33.5285C40.1314 33.5331 39.9206 33.5975 39.7387 33.7146C39.6421 33.7777 39.5293 33.8113 39.4139 33.8113C39.2985 33.8113 39.1857 33.7777 39.0891 33.7146L35.8888 31.6068C35.7703 31.529 35.6835 31.4113 35.6442 31.2751C35.6049 31.1388 35.6156 30.993 35.6745 30.864C36.0872 29.9549 36.3493 28.9847 36.4505 27.9914C36.4652 27.8514 36.5291 27.7212 36.6309 27.624C36.7327 27.5268 36.8657 27.4689 37.0062 27.4606L40.8235 27.235C40.9378 27.2282 41.0517 27.2547 41.1513 27.3111C41.251 27.3676 41.3322 27.4517 41.3852 27.5533C41.5084 27.7885 41.7069 27.9757 41.9491 28.0848C42.1912 28.194 42.4629 28.2188 42.7208 28.1554C42.9787 28.0919 43.2079 27.9438 43.3717 27.7348C43.5355 27.5258 43.6246 27.2678 43.6246 27.0023C43.6246 26.7367 43.5355 26.4787 43.3717 26.2697C43.2079 26.0607 42.9787 25.9126 42.7208 25.8491C42.4629 25.7857 42.1912 25.8105 41.9491 25.9197C41.7069 26.0288 41.5084 26.216 41.3852 26.4513C41.3322 26.5528 41.251 26.6369 41.1513 26.6934C41.0517 26.7499 40.9378 26.7763 40.8235 26.7695L37.0062 26.5439C36.8657 26.5356 36.7327 26.4777 36.6309 26.3805C36.5291 26.2833 36.4652 26.1531 36.4505 26.0131C36.3493 25.0198 36.0872 24.0496 35.6745 23.1405C35.6156 23.0115 35.6049 22.8657 35.6442 22.7295C35.6835 22.5932 35.7703 22.4755 35.8888 22.3977L39.0891 20.2899C39.1857 20.2268 39.2985 20.1932 39.4139 20.1932C39.5293 20.1932 39.6421 20.2268 39.7387 20.2899C39.921 20.4069 40.1322 20.4711 40.3488 20.4755C40.5654 20.4799 40.779 20.4243 40.966 20.3148C41.1685 20.196 41.3315 20.02 41.4343 19.8089C41.5372 19.5978 41.5754 19.361 41.5441 19.1283C41.5128 18.8955 41.4135 18.6772 41.2585 18.5007C41.1036 18.3243 40.9 18.1975 40.6732 18.1364C40.4933 18.0888 40.3047 18.0843 40.1226 18.123C39.9406 18.1618 39.7702 18.2428 39.6252 18.3595C39.4802 18.4762 39.3647 18.6254 39.288 18.795C39.2113 18.9646 39.1755 19.1498 39.1835 19.3358C39.1887 19.4504 39.1605 19.564 39.1025 19.6629C39.0444 19.7619 38.9589 19.8419 38.8564 19.8933L35.4364 21.6098C35.3104 21.6729 35.1661 21.6891 35.0293 21.6556C34.8925 21.6221 34.772 21.5411 34.6894 21.4269C34.1022 20.6155 33.3895 19.9028 32.5781 19.3156C32.464 19.2329 32.3831 19.1124 32.3497 18.9756C32.3163 18.8388 32.3326 18.6945 32.3958 18.5686L34.1117 15.1486C34.1631 15.0461 34.2431 14.9606 34.3421 14.9025C34.441 14.8445 34.5546 14.8163 34.6692 14.8215C34.935 14.8331 35.197 14.7551 35.4132 14.6C35.6293 14.445 35.7872 14.2218 35.8614 13.9663C35.9356 13.7109 35.9219 13.4379 35.8224 13.1911C35.7229 12.9444 35.5435 12.7382 35.3129 12.6056C35.0402 12.4482 34.7164 12.4051 34.4121 12.4858C34.1078 12.5664 33.8478 12.7643 33.689 13.0361C33.5796 13.2228 33.5241 13.4361 33.5287 13.6524C33.5332 13.8687 33.5975 14.0796 33.7145 14.2616C33.7776 14.3581 33.8112 14.471 33.8112 14.5863C33.8112 14.7017 33.7776 14.8146 33.7145 14.9111L31.6067 18.1114C31.5288 18.2297 31.4112 18.3163 31.2751 18.3555C31.139 18.3947 30.9934 18.3839 30.8645 18.3252C29.9552 17.9126 28.9848 17.6507 27.9913 17.5498C27.8513 17.5352 27.721 17.4714 27.6237 17.3697C27.5264 17.2681 27.4683 17.1351 27.4599 16.9946L27.2349 13.1768C27.2281 13.0624 27.2545 12.9486 27.311 12.8489C27.3675 12.7492 27.4516 12.668 27.5531 12.6151C27.7884 12.4919 27.9756 12.2933 28.0847 12.0512C28.1939 11.8091 28.2187 11.5373 28.1553 11.2795C28.0918 11.0216 27.9437 10.7924 27.7347 10.6285C27.5257 10.4647 27.2677 10.3757 27.0021 10.3757C26.7366 10.3757 26.4786 10.4647 26.2696 10.6285C26.0606 10.7924 25.9125 11.0216 25.849 11.2795C25.7856 11.5373 25.8104 11.8091 25.9196 12.0512C26.0287 12.2933 26.2159 12.4919 26.4511 12.6151C26.5527 12.668 26.6368 12.7492 26.6933 12.8489C26.7498 12.9486 26.7762 13.0624 26.7694 13.1768L26.5444 16.9946C26.536 17.1351 26.4779 17.2681 26.3806 17.3697C26.2833 17.4714 26.153 17.5352 26.013 17.5498C25.0199 17.6508 24.0499 17.9127 23.141 18.3252C23.0121 18.3839 22.8665 18.3947 22.7304 18.3555C22.5943 18.3163 22.4767 18.2297 22.3988 18.1114L20.291 14.9111C20.2279 14.8146 20.1943 14.7017 20.1943 14.5863C20.1943 14.471 20.2279 14.3581 20.291 14.2616C20.4082 14.0792 20.4725 13.8678 20.4768 13.6511C20.4811 13.4343 20.4252 13.2206 20.3153 13.0337C20.1965 12.8313 20.0205 12.6686 19.8094 12.5658C19.5984 12.4631 19.3617 12.425 19.1291 12.4562C18.8965 12.4875 18.6783 12.5868 18.5019 12.7416C18.3255 12.8964 18.1987 13.0998 18.1375 13.3264C18.0898 13.5064 18.0851 13.6951 18.1239 13.8772C18.1626 14.0593 18.2436 14.2298 18.3603 14.3749C18.477 14.5199 18.6262 14.6355 18.7959 14.7122C18.9655 14.789 19.1508 14.8248 19.3368 14.8167C19.4514 14.8116 19.5651 14.8397 19.664 14.8978C19.763 14.9558 19.843 15.0413 19.8944 15.1439L21.6103 18.5639C21.6734 18.6898 21.6898 18.834 21.6564 18.9708C21.623 19.1077 21.5421 19.2282 21.428 19.3108C20.6166 19.8981 19.9039 20.6108 19.3166 21.4222C19.2341 21.5363 19.1136 21.6174 18.9768 21.6509C18.84 21.6844 18.6957 21.6681 18.5697 21.6051L15.1497 19.8885C15.0471 19.8371 14.9617 19.7571 14.9036 19.6582C14.8456 19.5593 14.8174 19.4456 14.8226 19.331C14.8347 19.0648 14.7569 18.8023 14.6018 18.5857C14.4467 18.369 14.2232 18.2108 13.9674 18.1366C13.7115 18.0623 13.438 18.0762 13.191 18.1761C12.944 18.276 12.7378 18.4561 12.6055 18.6874C12.4483 18.9601 12.4054 19.284 12.4861 19.5882C12.5669 19.8925 12.7648 20.1524 13.0366 20.3113C13.2234 20.4203 13.4367 20.4755 13.653 20.4709C13.8692 20.4663 14.08 20.402 14.2621 20.2852C14.3586 20.2221 14.4715 20.1885 14.5868 20.1885C14.7022 20.1885 14.8151 20.2221 14.9116 20.2852L18.1119 22.393C18.2305 22.4708 18.3172 22.5885 18.3566 22.7247C18.3959 22.8609 18.3851 23.0067 18.3263 23.1358C17.9135 24.0448 17.6514 25.015 17.5502 26.0083C17.5356 26.1483 17.4716 26.2785 17.3698 26.3758C17.268 26.473 17.135 26.5309 16.9945 26.5391L13.1773 26.7648C13.0629 26.772 12.9488 26.7458 12.8491 26.6892C12.7493 26.6327 12.6682 26.5484 12.6156 26.4465C12.4924 26.2112 12.2938 26.0241 12.0517 25.9149C11.8096 25.8058 11.5378 25.7809 11.2799 25.8444C11.022 25.9078 10.7929 26.0559 10.629 26.265C10.4652 26.474 10.3762 26.7319 10.3762 26.9975C10.3762 27.2631 10.4652 27.521 10.629 27.73C10.7929 27.9391 11.022 28.0872 11.2799 28.1506C11.5378 28.2141 11.8096 28.1892 12.0517 28.0801C12.2938 27.9709 12.4924 27.7838 12.6156 27.5485C12.6685 27.4469 12.7497 27.3628 12.8494 27.3064C12.9491 27.2499 13.0629 27.2235 13.1773 27.2303L16.9945 27.4559C17.135 27.4641 17.268 27.522 17.3698 27.6192C17.4716 27.7165 17.5356 27.8467 17.5502 27.9867C17.6514 28.98 17.9135 29.9502 18.3263 30.8593C18.3851 30.9883 18.3959 31.1341 18.3566 31.2703C18.3172 31.4065 18.2305 31.5242 18.1119 31.602L14.9116 33.7098C14.8151 33.7729 14.7022 33.8066 14.5868 33.8066C14.4715 33.8066 14.3586 33.7729 14.2621 33.7098C14.0798 33.5925 13.8686 33.5281 13.6519 33.5237C13.4353 33.5193 13.2216 33.5751 13.0348 33.6849C12.8322 33.8037 12.6693 33.9797 12.5664 34.1908C12.4635 34.402 12.4254 34.6388 12.4566 34.8715C12.4879 35.1042 12.5872 35.3226 12.7422 35.499C12.8971 35.6755 13.1008 35.8023 13.3275 35.8634C13.5074 35.9109 13.6961 35.9155 13.8781 35.8767C14.0602 35.838 14.2305 35.757 14.3755 35.6402C14.5205 35.5235 14.636 35.3744 14.7127 35.2048C14.7895 35.0352 14.8252 34.85 14.8172 34.664C14.8121 34.5494 14.8402 34.4358 14.8983 34.3368C14.9563 34.2379 15.0418 34.1579 15.1444 34.1065L18.5644 32.3899C18.6903 32.3269 18.8346 32.3106 18.9714 32.3441C19.1083 32.3776 19.2287 32.4587 19.3113 32.5728C19.8986 33.3842 20.6113 34.0969 21.4227 34.6842C21.5367 34.7668 21.6177 34.8873 21.651 35.0242C21.6844 35.161 21.6681 35.3052 21.605 35.4311L19.889 38.8511C19.8376 38.9537 19.7576 39.0392 19.6587 39.0972C19.5597 39.1553 19.4461 39.1834 19.3315 39.1783C19.1457 39.1708 18.9607 39.2069 18.7914 39.2838C18.622 39.3607 18.4731 39.4762 18.3564 39.621C18.2398 39.7658 18.1586 39.936 18.1196 40.1178C18.0805 40.2996 18.0846 40.4881 18.1315 40.668C18.1929 40.8948 18.3199 41.0983 18.4966 41.2532C18.6733 41.408 18.8918 41.5072 19.1246 41.5382C19.3575 41.5693 19.5943 41.5309 19.8054 41.4279C20.0165 41.3248 20.1925 41.1617 20.3112 40.9589C20.4205 40.7722 20.476 40.5589 20.4715 40.3426C20.467 40.1263 20.4027 39.9154 20.2856 39.7334C20.2225 39.6369 20.1889 39.524 20.1889 39.4087C20.1889 39.2933 20.2225 39.1804 20.2856 39.0839L22.3935 35.8836C22.4483 35.8019 22.5227 35.7352 22.6097 35.6894C22.6968 35.6436 22.7938 35.6201 22.8922 35.6211Z" fill="white"/>
<path d="M27.0004 24.0311C26.5306 24.0311 26.0715 23.8918 25.6809 23.6309C25.2903 23.3699 24.9859 22.999 24.8062 22.565C24.6264 22.131 24.5794 21.6535 24.671 21.1928C24.7626 20.7321 24.9888 20.3089 25.321 19.9768C25.6531 19.6446 26.0763 19.4184 26.537 19.3268C26.9977 19.2351 27.4753 19.2822 27.9092 19.4619C28.3432 19.6417 28.7141 19.9461 28.9751 20.3366C29.2361 20.7272 29.3754 21.1864 29.3754 21.6561C29.3754 22.286 29.1251 22.8901 28.6797 23.3355C28.2343 23.7809 27.6303 24.0311 27.0004 24.0311ZM27.0004 20.4686C26.7655 20.4686 26.5359 20.5383 26.3406 20.6688C26.1453 20.7992 25.9931 20.9847 25.9033 21.2017C25.8134 21.4187 25.7899 21.6574 25.8357 21.8878C25.8815 22.1182 25.9946 22.3297 26.1607 22.4958C26.3268 22.6619 26.5383 22.775 26.7687 22.8208C26.9991 22.8666 27.2378 22.8431 27.4548 22.7532C27.6718 22.6634 27.8573 22.5112 27.9877 22.3159C28.1182 22.1206 28.1879 21.891 28.1879 21.6561C28.1879 21.3412 28.0628 21.0391 27.8401 20.8164C27.6174 20.5937 27.3153 20.4686 27.0004 20.4686Z" fill="white"/>
<path d="M24.0316 32.3436C23.5619 32.3436 23.1027 32.2043 22.7121 31.9434C22.3216 31.6824 22.0172 31.3115 21.8374 30.8775C21.6576 30.4435 21.6106 29.966 21.7023 29.5053C21.7939 29.0446 22.0201 28.6214 22.3522 28.2893C22.6844 27.9571 23.1076 27.7309 23.5683 27.6393C24.029 27.5476 24.5065 27.5947 24.9405 27.7744C25.3745 27.9542 25.7454 28.2586 26.0064 28.6491C26.2673 29.0397 26.4066 29.4989 26.4066 29.9686C26.4066 30.5985 26.1564 31.2026 25.711 31.648C25.2656 32.0934 24.6615 32.3436 24.0316 32.3436ZM24.0316 28.7811C23.7968 28.7811 23.5672 28.8508 23.3719 28.9813C23.1766 29.1117 23.0244 29.2972 22.9345 29.5142C22.8446 29.7312 22.8211 29.9699 22.8669 30.2003C22.9128 30.4307 23.0259 30.6422 23.1919 30.8083C23.358 30.9744 23.5696 31.0875 23.7999 31.1333C24.0303 31.1791 24.2691 31.1556 24.4861 31.0657C24.703 30.9759 24.8885 30.8237 25.019 30.6284C25.1495 30.4331 25.2191 30.2035 25.2191 29.9686C25.2191 29.6537 25.094 29.3516 24.8713 29.1289C24.6486 28.9062 24.3466 28.7811 24.0316 28.7811Z" fill="white"/>
<path d="M31.7504 29.9686C31.1632 29.9686 30.5892 29.7945 30.101 29.4683C29.6128 29.1421 29.2323 28.6784 29.0076 28.136C28.7829 27.5935 28.7241 26.9966 28.8387 26.4207C28.9532 25.8448 29.236 25.3158 29.6511 24.9007C30.0663 24.4855 30.5953 24.2027 31.1712 24.0882C31.7471 23.9736 32.344 24.0324 32.8865 24.2571C33.4289 24.4818 33.8926 24.8623 34.2188 25.3505C34.545 25.8387 34.7191 26.4127 34.7191 26.9999C34.7182 27.787 34.4051 28.5415 33.8485 29.0981C33.292 29.6546 32.5374 29.9677 31.7504 29.9686ZM31.7504 25.2186C31.3981 25.2186 31.0537 25.3231 30.7608 25.5188C30.4678 25.7145 30.2395 25.9927 30.1047 26.3182C29.9699 26.6437 29.9346 27.0019 30.0033 27.3474C30.0721 27.6929 30.2417 28.0103 30.4908 28.2594C30.7399 28.5085 31.0573 28.6782 31.4029 28.7469C31.7484 28.8156 32.1065 28.7804 32.432 28.6455C32.7575 28.5107 33.0357 28.2824 33.2314 27.9895C33.4271 27.6966 33.5316 27.3522 33.5316 26.9999C33.5316 26.5275 33.344 26.0744 33.0099 25.7403C32.6759 25.4063 32.2228 25.2186 31.7504 25.2186Z" fill="white"/>
<path d="M21.6566 26.9999C21.3043 26.9999 20.9599 26.8954 20.667 26.6997C20.3741 26.504 20.1458 26.2258 20.011 25.9003C19.8761 25.5748 19.8409 25.2167 19.9096 24.8711C19.9783 24.5256 20.148 24.2082 20.3971 23.9591C20.6462 23.71 20.9636 23.5403 21.3091 23.4716C21.6546 23.4029 22.0128 23.4381 22.3383 23.573C22.6638 23.7078 22.9419 23.9361 23.1377 24.229C23.3334 24.5219 23.4379 24.8663 23.4379 25.2186C23.4379 25.691 23.2502 26.1441 22.9162 26.4782C22.5821 26.8122 22.129 26.9999 21.6566 26.9999ZM21.6566 24.6249C21.5392 24.6249 21.4244 24.6597 21.3267 24.7249C21.2291 24.7902 21.153 24.8829 21.1081 24.9914C21.0631 25.0999 21.0514 25.2193 21.0743 25.3345C21.0972 25.4496 21.1537 25.5554 21.2368 25.6385C21.3198 25.7215 21.4256 25.7781 21.5408 25.801C21.656 25.8239 21.7753 25.8121 21.8838 25.7672C21.9923 25.7222 22.0851 25.6461 22.1503 25.5485C22.2155 25.4509 22.2504 25.3361 22.2504 25.2186C22.2504 25.0612 22.1878 24.9101 22.0765 24.7988C21.9651 24.6874 21.8141 24.6249 21.6566 24.6249Z" fill="white"/>
<path d="M29.3754 34.1249C29.0231 34.1249 28.6787 34.0204 28.3858 33.8247C28.0928 33.629 27.8645 33.3508 27.7297 33.0253C27.5949 32.6998 27.5596 32.3417 27.6283 31.9961C27.6971 31.6506 27.8667 31.3332 28.1158 31.0841C28.3649 30.835 28.6823 30.6653 29.0279 30.5966C29.3734 30.5279 29.7315 30.5632 30.057 30.698C30.3825 30.8328 30.6607 31.0611 30.8564 31.354C31.0521 31.6469 31.1566 31.9913 31.1566 32.3436C31.1566 32.816 30.969 33.2691 30.6349 33.6032C30.3009 33.9372 29.8478 34.1249 29.3754 34.1249ZM29.3754 31.7499C29.2579 31.7499 29.1431 31.7847 29.0455 31.8499C28.9479 31.9152 28.8718 32.0079 28.8268 32.1164C28.7819 32.2249 28.7701 32.3443 28.793 32.4595C28.8159 32.5746 28.8725 32.6804 28.9555 32.7635C29.0386 32.8465 29.1444 32.9031 29.2595 32.926C29.3747 32.9489 29.4941 32.9371 29.6026 32.8922C29.7111 32.8472 29.8038 32.7711 29.8691 32.6735C29.9343 32.5759 29.9691 32.4611 29.9691 32.3436C29.9691 32.1862 29.9066 32.0351 29.7952 31.9238C29.6839 31.8124 29.5328 31.7499 29.3754 31.7499Z" fill="white"/>
</svg>
