<svg width="14" height="22" viewBox="0 0 14 22" fill="none" xmlns="http://www.w3.org/2000/svg">
<g opacity="0.6">
<path d="M12 0.00999999L2 0C1.47005 0.00158273 0.962265 0.212805 0.587535 0.587535C0.212805 0.962265 0.00158273 1.47005 0 2V20C0.00158273 20.5299 0.212805 21.0377 0.587535 21.4125C0.962265 21.7872 1.47005 21.9984 2 22H12C12.5299 21.9984 13.0377 21.7872 13.4125 21.4125C13.7872 21.0377 13.9984 20.5299 14 20V2C13.9974 1.4713 13.7855 0.965159 13.4107 0.592247C13.0359 0.219334 12.5287 0.00999338 12 0.00999999ZM12 20H2V17H12V20ZM12 17H2V5H12V17ZM12 3H2V2H12V3Z" fill="black"/>
<path d="M7 19C7.55228 19 8 18.5523 8 18C8 17.4477 7.55228 17 7 17C6.44772 17 6 17.4477 6 18C6 18.5523 6.44772 19 7 19Z" fill="white"/>
<path fill-rule="evenodd" clip-rule="evenodd" d="M6 18C6 17.4477 6.44772 17 7 17C7.55228 17 8 17.4477 8 18C8 18.5523 7.55228 19 7 19C6.44772 19 6 18.5523 6 18Z" fill="black"/>
</g>
</svg>
