<svg width="20" height="20" viewBox="0 0 20 20" fill="none" xmlns="http://www.w3.org/2000/svg">
<g clip-path="url(#clip0_1185_956)">
<path opacity="0.6" d="M10 0C8.02219 0 6.08879 0.58649 4.4443 1.6853C2.79981 2.78412 1.51809 4.3459 0.761209 6.17317C0.00433284 8.00043 -0.193701 10.0111 0.192152 11.9509C0.578004 13.8907 1.53041 15.6725 2.92894 17.0711C4.32746 18.4696 6.10929 19.422 8.0491 19.8079C9.98891 20.1937 11.9996 19.9957 13.8268 19.2388C15.6541 18.4819 17.2159 17.2002 18.3147 15.5557C19.4135 13.9112 20 11.9778 20 10C20 8.68678 19.7413 7.38642 19.2388 6.17317C18.7363 4.95991 17.9997 3.85752 17.0711 2.92893C16.1425 2.00035 15.0401 1.26375 13.8268 0.761205C12.6136 0.258658 11.3132 0 10 0V0ZM5.07 16.28C5.5 15.38 8.12 14.5 10 14.5C11.88 14.5 14.51 15.38 14.93 16.28C13.5282 17.3938 11.7905 18.0001 10 18.0001C8.20955 18.0001 6.47185 17.3938 5.07 16.28V16.28ZM16.36 14.83C14.93 13.09 11.46 12.5 10 12.5C8.54 12.5 5.07 13.09 3.64 14.83C2.73535 13.6444 2.18011 12.2295 2.03695 10.7451C1.89379 9.26064 2.16841 7.76573 2.82982 6.4291C3.49123 5.09246 4.51309 3.96731 5.78006 3.18065C7.04704 2.39398 8.50868 1.97712 10 1.97712C11.4913 1.97712 12.953 2.39398 14.2199 3.18065C15.4869 3.96731 16.5088 5.09246 17.1702 6.4291C17.8316 7.76573 18.1062 9.26064 17.9631 10.7451C17.8199 12.2295 17.2647 13.6444 16.36 14.83V14.83ZM10 4C9.30777 4 8.63108 4.20527 8.05551 4.58986C7.47994 4.97444 7.03133 5.52107 6.76643 6.16061C6.50152 6.80015 6.43221 7.50388 6.56726 8.18282C6.7023 8.86175 7.03565 9.48539 7.52513 9.97487C8.01461 10.4644 8.63825 10.7977 9.31719 10.9327C9.99612 11.0678 10.6999 10.9985 11.3394 10.7336C11.9789 10.4687 12.5256 10.0201 12.9101 9.4445C13.2947 8.86892 13.5 8.19223 13.5 7.5C13.5012 7.04004 13.4115 6.58438 13.236 6.1592C13.0605 5.73403 12.8028 5.34772 12.4775 5.02248C12.1523 4.69724 11.766 4.43947 11.3408 4.264C10.9156 4.08853 10.46 3.99881 10 4V4ZM10 9C9.70333 9 9.41332 8.91203 9.16665 8.7472C8.91998 8.58238 8.72772 8.34811 8.61419 8.07403C8.50065 7.79994 8.47095 7.49834 8.52883 7.20736C8.5867 6.91639 8.72957 6.64912 8.93934 6.43934C9.14912 6.22956 9.4164 6.0867 9.70737 6.02882C9.99834 5.97094 10.2999 6.00065 10.574 6.11418C10.8481 6.22771 11.0824 6.41997 11.2472 6.66665C11.412 6.91332 11.5 7.20333 11.5 7.5C11.5 7.89782 11.342 8.27936 11.0607 8.56066C10.7794 8.84196 10.3978 9 10 9Z" fill="black"/>
</g>
<defs>
<clipPath id="clip0_1185_956">
<rect width="20" height="20" fill="white"/>
</clipPath>
</defs>
</svg>
